HIERARCHY
ROOT Hips
{
  OFFSET 39.5157 99.4896 24.7913
  CHANNELS 6 Xposition Yposition Zposition Zrotation Xrotation Yrotation
  JOINT ToSpine
  {
    OFFSET -0.0105055 1.38907 -7.13956
    CHANNELS 3 Zrotation Xrotation Yrotation
    JOINT Spine
    {
      OFFSET 0.0105055 10 1
      CHANNELS 3 Zrotation Xrotation Yrotation
      JOINT Spine1
      {
        OFFSET 0 12 1.60637
        CHANNELS 3 Zrotation Xrotation Yrotation
        JOINT Neck
        {
          OFFSET 0 27 2.26658
          CHANNELS 3 Zrotation Xrotation Yrotation
          JOINT Head
          {
            OFFSET 0 9 2.12705
            CHANNELS 3 Zrotation Xrotation Yrotation
            End Site
            {
              OFFSET 0 11 2
            }
          }
        }
        JOINT LeftShoulder
        {
          OFFSET 8 19.6109 2.86452
          CHANNELS 3 Zrotation Xrotation Yrotation
          JOINT LeftArm
          {
            OFFSET 12 1 0.681055
            CHANNELS 3 Zrotation Xrotation Yrotation
            JOINT LeftForeArm
            {
              OFFSET 19 0 -1.52608
              CHANNELS 3 Zrotation Xrotation Yrotation
              JOINT LeftHand
              {
                OFFSET 23 0 0
                CHANNELS 3 Zrotation Xrotation Yrotation
                End Site
                {
                  OFFSET 10 0 0
                }
              }
            }
          }
        }
        JOINT RightShoulder
        {
          OFFSET -8 19.6109 2.86452
          CHANNELS 3 Zrotation Xrotation Yrotation
          JOINT RightArm
          {
            OFFSET -12 1 0.681055
            CHANNELS 3 Zrotation Xrotation Yrotation
            JOINT RightForeArm
            {
              OFFSET -19 0 -1.52608
              CHANNELS 3 Zrotation Xrotation Yrotation
              JOINT RightHand
              {
                OFFSET -23 0 0
                CHANNELS 3 Zrotation Xrotation Yrotation
                End Site
                {
                  OFFSET -10 0 0
                }
              }
            }
          }
        }
      }
    }
  }
  JOINT LeftUpLeg
  {
    OFFSET 9 -7.17245 0
    CHANNELS 3 Zrotation Xrotation Yrotation
    JOINT LeftLeg
    {
      OFFSET 0 -44.1113 0
      CHANNELS 3 Zrotation Xrotation Yrotation
      JOINT LeftFoot
      {
        OFFSET 0 -36.1829 0
        CHANNELS 3 Zrotation Xrotation Yrotation
        JOINT LeftToeBase
        {
          OFFSET 0 -4.84184 13
          CHANNELS 3 Zrotation Xrotation Yrotation
          End Site
          {
            OFFSET 0 1 6
          }
        }
      }
    }
  }
  JOINT RightUpLeg
  {
    OFFSET -9 -7.17245 0
    CHANNELS 3 Zrotation Xrotation Yrotation
    JOINT RightLeg
    {
      OFFSET 0 -44.0551 0
      CHANNELS 3 Zrotation Xrotation Yrotation
      JOINT RightFoot
      {
        OFFSET 0 -36.1469 0
        CHANNELS 3 Zrotation Xrotation Yrotation
        JOINT RightToeBase
        {
          OFFSET 0 -4.92256 13
          CHANNELS 3 Zrotation Xrotation Yrotation
          End Site
          {
            OFFSET 0 1 6
          }
        }
      }
    }
  }
}
MOTION
Frames:	10
Frame Time:	0.0333333
39.5107 99.4851 24.7919 1.29283 -5.72371 0.672317 0 0 0 2.52727 5.05271 0.319096 -5.56434 3.32673 1.29694 8.53147 3.12242 -2.34842 -4.43757 -2.29464 1.341 -29.1055 3.86484 -7.45312 -41.6174 27.5825 -18.4723 -6.84645 -13.417 0.262612 -9.01332 0.37924 -4.80751 26.2911 6.48437 16.3051 50.6802 17.8657 5.35063 5.04918 -6.43848 9.88527 2.839 0.0844801 3.41222 0.52226 7.09518 7.26472 -1.1878 5.46476 -9.93351 3.56859 -7.9309 0.247298 0.693993 2.24148 -3.2565 -3.21779 7.68437 -9.34312 0.0551059 5.01404 -4.71352 -8.88908 -3.36204 -0.261081 3.329 -12.1909 -3.65467 
39.4637 99.4907 24.7869 1.22865 -5.62252 0.673181 0 0 0 2.4623 4.97909 0.322975 -5.46251 3.26436 1.26566 8.58884 3.31196 -2.37374 -4.60108 -2.64197 1.36642 -29.1994 3.86485 -7.42475 -41.4429 27.9492 -18.3628 -6.8963 -13.705 -0.0434245 -8.6705 0.341188 -4.50848 26.2973 6.49748 16.3409 50.8365 17.6358 5.30272 4.95534 -6.21579 9.88258 2.66943 0.0748932 3.18729 0.708296 6.86773 7.42751 -1.31741 5.7507 -10.185 3.41442 -8.09724 0.241623 0.573291 2.37905 -2.81222 -3.0663 7.6005 -9.15963 -0.0102369 4.90539 -4.73674 -9.09937 -2.82523 -0.225395 3.45444 -12.7074 -3.85594 
39.361 99.5417 24.765 0.944511 -5.11151 0.888929 0 0 0 2.57559 4.33352 0.286427 -5.36891 3.38948 1.20452 9.10362 3.76948 -2.60508 -5.30443 -3.75577 1.43241 -28.9624 3.88157 -7.54396 -40.9558 29.5449 -18.3934 -7.2309 -15.5879 -0.808246 -9.16546 0.288484 -3.59368 26.5538 6.51626 16.2494 51.0429 17.2094 5.28645 4.75457 -5.71194 9.93763 2.08886 0.0468871 2.58979 1.2303 6.12785 7.65514 -1.52677 6.07736 -10.7396 3.75098 -7.91848 0.259727 0.55201 1.69834 -2.61492 -2.5721 7.09125 -8.74957 -0.202079 4.76095 -5.31028 -8.87167 -2.23672 -0.173569 3.39038 -12.4491 -3.69655 
39.3546 99.5276 24.758 1.21573 -4.93381 0.979677 0 0 0 1.87777 4.09444 0.410833 -4.76997 3.43037 1.20077 8.87879 3.92545 -2.59764 -5.08238 -3.91483 1.32614 -29.103 3.93668 -7.65613 -40.8125 29.8097 -18.4723 -7.35299 -15.879 -0.837443 -9.20286 0.291499 -3.6202 26.3715 6.42794 16.0897 51.0616 17.3493 5.22551 4.83013 -5.94949 9.97471 1.978 0.046987 2.72062 0.89749 5.94891 7.4108 -1.44799 6.04107 -10.4938 3.67773 -8.09401 0.260283 0.575707 1.88872 -2.74062 -2.87251 6.92685 -8.9324 -0.0792619 4.75163 -5.25778 -9.15196 -2.55405 -0.204378 3.3301 -12.1657 -4.11428 
39.3937 99.5508 24.7541 1.30673 -4.71968 0.966259 0 0 0 1.53163 3.86993 0.578828 -4.27929 3.35733 1.28462 8.82557 4.12399 -2.72335 -5.22983 -3.94681 1.22344 -29.4042 4.01533 -7.78394 -40.7409 29.7408 -18.5768 -7.36342 -15.066 -0.64838 -8.95696 0.282993 -3.61245 26.1835 6.32495 15.8873 51.1597 17.2039 5.04284 4.72712 -5.61414 10.0249 2.31884 0.0545724 2.69663 0.714538 5.90429 7.23967 -1.42902 5.61551 -10.2763 3.77614 -7.85773 0.259456 0.579739 1.86462 -2.75288 -3.05483 6.66825 -9.07314 -0.0774002 4.80196 -5.21868 -8.99089 -2.4976 -0.196299 3.31883 -12.165 -3.44818 
39.3811 99.5709 24.751 1.13375 -4.92526 0.962439 0 0 0 1.68626 4.12464 0.558922 -4.14139 3.34524 1.23379 8.47345 4.09159 -2.63831 -4.96628 -3.9436 1.1381 -29.5745 4.00729 -7.70881 -40.5938 29.753 -18.6093 -7.39276 -15.527 -0.679889 -8.79922 0.287696 -3.73688 26.0009 6.2964 15.9047 51.0999 16.9482 5.13126 4.243 -3.52805 9.90109 3.05425 0.071783 2.69721 0.943996 6.09607 7.40544 -1.48949 5.67955 -10.5 3.90874 -7.77338 0.265678 0.544546 1.646 -2.57666 -2.82343 6.85763 -8.96555 -0.0782395 4.87093 -5.02708 -9.09333 -2.29565 -0.182511 3.33491 -12.1444 -4.69006 
39.4015 99.5887 24.7645 1.25111 -4.73051 1.04209 0 0 0 1.404 3.856 0.523109 -3.86094 3.36518 1.15137 8.3831 4.25492 -2.54388 -4.90236 -4.07137 1.19559 -29.7523 4.00669 -7.65266 -40.4017 29.9949 -18.5882 -7.45007 -15.4338 -0.86359 -8.65397 0.273998 -3.61937 26.0434 6.33611 16.0006 51.0753 16.8709 5.11289 4.30096 -3.77874 9.76972 2.95987 0.0715162 2.71673 0.780543 6.03635 7.26581 -1.49281 5.33408 -10.4547 3.86872 -7.64398 0.258436 0.533759 1.88954 -2.57623 -2.99307 6.66462 -9.0957 -0.137155 4.87826 -5.27027 -8.77721 -2.45519 -0.188414 3.28794 -12.033 -3.48079 
39.3826 99.5551 24.7514 1.12003 -4.96757 0.928357 0 0 0 1.78082 4.19775 0.584145 -4.23447 3.26591 1.26642 8.4421 4.12689 -2.58873 -4.93198 -3.92754 1.17365 -29.6503 4.01182 -7.69809 -40.3856 30.003 -18.6884 -7.45639 -15.9263 -0.718027 -9.02342 0.295983 -3.75041 25.9343 6.28915 15.9208 51.2596 16.7245 5.12781 4.25656 -3.71569 9.83271 2.88673 0.0724293 2.65122 0.993469 6.00148 7.47675 -1.50831 6.00546 -10.4691 3.80391 -8.12718 0.270331 0.562472 2.07799 -2.71986 -2.82466 6.90546 -8.95083 -0.0395918 4.86609 -4.96531 -9.04795 -2.31175 -0.182093 3.39586 -12.4217 -4.52693 
39.3841 99.5625 24.7637 1.18388 -4.9128 0.993244 0 0 0 1.65883 4.08679 0.574239 -4.15112 3.26829 1.2421 8.50306 4.25956 -2.68322 -4.93407 -4.113 1.10122 -29.6604 4.03291 -7.75356 -40.4323 29.8221 -18.7178 -7.43425 -15.9648 -0.535989 -9.16044 0.291163 -3.63185 26.0227 6.31938 15.9619 51.1364 16.7647 5.00584 4.19609 -3.48814 9.96865 3.12377 0.0733025 2.54061 0.907445 5.9899 7.38361 -1.47147 5.90243 -10.512 3.83077 -7.94639 0.266125 0.55903 1.83287 -2.66566 -2.88457 6.85332 -8.99951 -0.0393084 4.85112 -5.05195 -9.19281 -2.20221 -0.177246 3.45254 -12.6675 -4.5337 
39.3897 99.5737 24.7886 1.27693 -4.81104 1.08644 0 0 0 1.43997 3.90705 0.561415 -3.9419 3.30973 1.19231 8.45732 4.20794 -2.67568 -4.95562 -4.03556 1.0973 -29.8056 4.03105 -7.70377 -40.2809 30.0323 -18.6754 -7.4608 -15.6057 -0.807439 -9.00976 0.27208 -3.45122 25.9866 6.3016 15.9287 51.1686 16.8435 4.99916 4.23401 -3.60325 9.95068 2.91657 0.074107 2.48768 0.782498 5.95982 7.27705 -1.42577 5.73723 -10.4659 3.55209 -8.05237 0.250153 0.523431 2.47572 -2.63384 -3.00752 6.78621 -9.10128 -0.0562281 4.84358 -5.15753 -9.01778 -2.22545 -0.175312 3.4515 -12.6991 -3.80656 
